<svg id="visual" viewBox="0 0 960 540" width="960" height="540" xmlns="http://www.w3.org/2000/svg" xmlns:xlink="http://www.w3.org/1999/xlink" version="1.1"><rect x="0" y="0" width="960" height="540" fill="#fff"></rect><path d="M0 204L22.8 205.2C45.7 206.3 91.3 208.7 137 208.2C182.7 207.7 228.3 204.3 274 192.8C319.7 181.3 365.3 161.7 411.2 164.7C457 167.7 503 193.3 548.8 203.7C594.7 214 640.3 209 686 193.8C731.7 178.7 777.3 153.3 823 151.3C868.7 149.3 914.3 170.7 937.2 181.3L960 192L960 541L937.2 541C914.3 541 868.7 541 823 541C777.3 541 731.7 541 686 541C640.3 541 594.7 541 548.8 541C503 541 457 541 411.2 541C365.3 541 319.7 541 274 541C228.3 541 182.7 541 137 541C91.3 541 45.7 541 22.8 541L0 541Z" fill="#ffffff"></path><path d="M0 215L22.8 207C45.7 199 91.3 183 137 174.3C182.7 165.7 228.3 164.3 274 173.5C319.7 182.7 365.3 202.3 411.2 202.5C457 202.7 503 183.3 548.8 186C594.7 188.7 640.3 213.3 686 220C731.7 226.7 777.3 215.3 823 218.8C868.7 222.3 914.3 240.7 937.2 249.8L960 259L960 541L937.2 541C914.3 541 868.7 541 823 541C777.3 541 731.7 541 686 541C640.3 541 594.7 541 548.8 541C503 541 457 541 411.2 541C365.3 541 319.7 541 274 541C228.3 541 182.7 541 137 541C91.3 541 45.7 541 22.8 541L0 541Z" fill="#fffaea"></path><path d="M0 211L22.8 214C45.7 217 91.3 223 137 225.3C182.7 227.7 228.3 226.3 274 231.5C319.7 236.7 365.3 248.3 411.2 254C457 259.7 503 259.3 548.8 251.7C594.7 244 640.3 229 686 222.2C731.7 215.3 777.3 216.7 823 224.7C868.7 232.7 914.3 247.3 937.2 254.7L960 262L960 541L937.2 541C914.3 541 868.7 541 823 541C777.3 541 731.7 541 686 541C640.3 541 594.7 541 548.8 541C503 541 457 541 411.2 541C365.3 541 319.7 541 274 541C228.3 541 182.7 541 137 541C91.3 541 45.7 541 22.8 541L0 541Z" fill="#fff4d5"></path><path d="M0 301L22.8 297.7C45.7 294.3 91.3 287.7 137 289.7C182.7 291.7 228.3 302.3 274 295.3C319.7 288.3 365.3 263.7 411.2 259.5C457 255.3 503 271.7 548.8 283C594.7 294.3 640.3 300.7 686 302.8C731.7 305 777.3 303 823 296.2C868.7 289.3 914.3 277.7 937.2 271.8L960 266L960 541L937.2 541C914.3 541 868.7 541 823 541C777.3 541 731.7 541 686 541C640.3 541 594.7 541 548.8 541C503 541 457 541 411.2 541C365.3 541 319.7 541 274 541C228.3 541 182.7 541 137 541C91.3 541 45.7 541 22.8 541L0 541Z" fill="#ffefc0"></path><path d="M0 303L22.8 308.5C45.7 314 91.3 325 137 329.7C182.7 334.3 228.3 332.7 274 323.8C319.7 315 365.3 299 411.2 298.5C457 298 503 313 548.8 318.7C594.7 324.3 640.3 320.7 686 317.2C731.7 313.7 777.3 310.3 823 312.8C868.7 315.3 914.3 323.7 937.2 327.8L960 332L960 541L937.2 541C914.3 541 868.7 541 823 541C777.3 541 731.7 541 686 541C640.3 541 594.7 541 548.8 541C503 541 457 541 411.2 541C365.3 541 319.7 541 274 541C228.3 541 182.7 541 137 541C91.3 541 45.7 541 22.8 541L0 541Z" fill="#ffeaab"></path><path d="M0 327L22.8 330.3C45.7 333.7 91.3 340.3 137 338.3C182.7 336.3 228.3 325.7 274 320C319.7 314.3 365.3 313.7 411.2 322.5C457 331.3 503 349.7 548.8 355.7C594.7 361.7 640.3 355.3 686 350C731.7 344.7 777.3 340.3 823 340.3C868.7 340.3 914.3 344.7 937.2 346.8L960 349L960 541L937.2 541C914.3 541 868.7 541 823 541C777.3 541 731.7 541 686 541C640.3 541 594.7 541 548.8 541C503 541 457 541 411.2 541C365.3 541 319.7 541 274 541C228.3 541 182.7 541 137 541C91.3 541 45.7 541 22.8 541L0 541Z" fill="#ffe596"></path><path d="M0 359L22.8 364.3C45.7 369.7 91.3 380.3 137 383C182.7 385.7 228.3 380.3 274 377C319.7 373.7 365.3 372.3 411.2 369.5C457 366.7 503 362.3 548.8 362.5C594.7 362.7 640.3 367.3 686 365.5C731.7 363.7 777.3 355.3 823 350.3C868.7 345.3 914.3 343.7 937.2 342.8L960 342L960 541L937.2 541C914.3 541 868.7 541 823 541C777.3 541 731.7 541 686 541C640.3 541 594.7 541 548.8 541C503 541 457 541 411.2 541C365.3 541 319.7 541 274 541C228.3 541 182.7 541 137 541C91.3 541 45.7 541 22.8 541L0 541Z" fill="#ffe081"></path><path d="M0 401L22.8 404C45.7 407 91.3 413 137 411.7C182.7 410.3 228.3 401.7 274 395.7C319.7 389.7 365.3 386.3 411.2 389.8C457 393.3 503 403.7 548.8 406C594.7 408.3 640.3 402.7 686 404.5C731.7 406.3 777.3 415.7 823 418.3C868.7 421 914.3 417 937.2 415L960 413L960 541L937.2 541C914.3 541 868.7 541 823 541C777.3 541 731.7 541 686 541C640.3 541 594.7 541 548.8 541C503 541 457 541 411.2 541C365.3 541 319.7 541 274 541C228.3 541 182.7 541 137 541C91.3 541 45.7 541 22.8 541L0 541Z" fill="#ffdc6a"></path><path d="M0 433L22.8 431C45.7 429 91.3 425 137 425.5C182.7 426 228.3 431 274 429.5C319.7 428 365.3 420 411.2 422.3C457 424.7 503 437.3 548.8 443.7C594.7 450 640.3 450 686 449.8C731.7 449.7 777.3 449.3 823 445.8C868.7 442.3 914.3 435.7 937.2 432.3L960 429L960 541L937.2 541C914.3 541 868.7 541 823 541C777.3 541 731.7 541 686 541C640.3 541 594.7 541 548.8 541C503 541 457 541 411.2 541C365.3 541 319.7 541 274 541C228.3 541 182.7 541 137 541C91.3 541 45.7 541 22.8 541L0 541Z" fill="#ffd753"></path><path d="M0 464L22.8 464.8C45.7 465.7 91.3 467.3 137 465.7C182.7 464 228.3 459 274 458.2C319.7 457.3 365.3 460.7 411.2 463.3C457 466 503 468 548.8 465.3C594.7 462.7 640.3 455.3 686 452.7C731.7 450 777.3 452 823 451.8C868.7 451.7 914.3 449.3 937.2 448.2L960 447L960 541L937.2 541C914.3 541 868.7 541 823 541C777.3 541 731.7 541 686 541C640.3 541 594.7 541 548.8 541C503 541 457 541 411.2 541C365.3 541 319.7 541 274 541C228.3 541 182.7 541 137 541C91.3 541 45.7 541 22.8 541L0 541Z" fill="#ffd237"></path><path d="M0 506L22.8 502C45.7 498 91.3 490 137 486.5C182.7 483 228.3 484 274 488C319.7 492 365.3 499 411.2 502.2C457 505.3 503 504.7 548.8 500.7C594.7 496.7 640.3 489.3 686 486C731.7 482.7 777.3 483.3 823 483.8C868.7 484.3 914.3 484.7 937.2 484.8L960 485L960 541L937.2 541C914.3 541 868.7 541 823 541C777.3 541 731.7 541 686 541C640.3 541 594.7 541 548.8 541C503 541 457 541 411.2 541C365.3 541 319.7 541 274 541C228.3 541 182.7 541 137 541C91.3 541 45.7 541 22.8 541L0 541Z" fill="#ffcd01"></path></svg>