<svg id="visual" viewBox="0 0 1920 300" width="1920" height="300" xmlns="http://www.w3.org/2000/svg" xmlns:xlink="http://www.w3.org/1999/xlink" version="1.1"><rect x="0" y="0" width="1920" height="300" fill="#fff"></rect><path d="M0 117L40 106.2C80 95.3 160 73.7 240 65.3C320 57 400 62 480 71.2C560 80.3 640 93.7 720 103.5C800 113.3 880 119.7 960 112.5C1040 105.3 1120 84.7 1200 73C1280 61.3 1360 58.7 1440 61.5C1520 64.3 1600 72.7 1680 80C1760 87.3 1840 93.7 1880 96.8L1920 100L1920 301L1880 301C1840 301 1760 301 1680 301C1600 301 1520 301 1440 301C1360 301 1280 301 1200 301C1120 301 1040 301 960 301C880 301 800 301 720 301C640 301 560 301 480 301C400 301 320 301 240 301C160 301 80 301 40 301L0 301Z" fill="#ffffff"></path><path d="M0 130L40 128.8C80 127.7 160 125.3 240 117.8C320 110.3 400 97.7 480 89.3C560 81 640 77 720 87C800 97 880 121 960 128.7C1040 136.3 1120 127.7 1200 118.3C1280 109 1360 99 1440 103.5C1520 108 1600 127 1680 125.5C1760 124 1840 102 1880 91L1920 80L1920 301L1880 301C1840 301 1760 301 1680 301C1600 301 1520 301 1440 301C1360 301 1280 301 1200 301C1120 301 1040 301 960 301C880 301 800 301 720 301C640 301 560 301 480 301C400 301 320 301 240 301C160 301 80 301 40 301L0 301Z" fill="#e0e0e0"></path><path d="M0 158L40 157.3C80 156.7 160 155.3 240 155C320 154.7 400 155.3 480 155.7C560 156 640 156 720 155.2C800 154.3 880 152.7 960 146.7C1040 140.7 1120 130.3 1200 126.8C1280 123.3 1360 126.7 1440 132.2C1520 137.7 1600 145.3 1680 142.7C1760 140 1840 127 1880 120.5L1920 114L1920 301L1880 301C1840 301 1760 301 1680 301C1600 301 1520 301 1440 301C1360 301 1280 301 1200 301C1120 301 1040 301 960 301C880 301 800 301 720 301C640 301 560 301 480 301C400 301 320 301 240 301C160 301 80 301 40 301L0 301Z" fill="#c1c1c1"></path><path d="M0 154L40 151.8C80 149.7 160 145.3 240 144.3C320 143.3 400 145.7 480 152.3C560 159 640 170 720 176.7C800 183.3 880 185.7 960 176.8C1040 168 1120 148 1200 148.2C1280 148.3 1360 168.7 1440 177.5C1520 186.3 1600 183.7 1680 183.3C1760 183 1840 185 1880 186L1920 187L1920 301L1880 301C1840 301 1760 301 1680 301C1600 301 1520 301 1440 301C1360 301 1280 301 1200 301C1120 301 1040 301 960 301C880 301 800 301 720 301C640 301 560 301 480 301C400 301 320 301 240 301C160 301 80 301 40 301L0 301Z" fill="#a4a4a4"></path><path d="M0 155L40 163.5C80 172 160 189 240 195.2C320 201.3 400 196.7 480 192.2C560 187.7 640 183.3 720 178.3C800 173.3 880 167.7 960 169.7C1040 171.7 1120 181.3 1200 182.3C1280 183.3 1360 175.7 1440 169.8C1520 164 1600 160 1680 161.3C1760 162.7 1840 169.3 1880 172.7L1920 176L1920 301L1880 301C1840 301 1760 301 1680 301C1600 301 1520 301 1440 301C1360 301 1280 301 1200 301C1120 301 1040 301 960 301C880 301 800 301 720 301C640 301 560 301 480 301C400 301 320 301 240 301C160 301 80 301 40 301L0 301Z" fill="#878787"></path><path d="M0 185L40 189.2C80 193.3 160 201.7 240 202.7C320 203.7 400 197.3 480 199.5C560 201.7 640 212.3 720 217.5C800 222.7 880 222.3 960 216.5C1040 210.7 1120 199.3 1200 197.7C1280 196 1360 204 1440 207.3C1520 210.7 1600 209.3 1680 208.3C1760 207.3 1840 206.7 1880 206.3L1920 206L1920 301L1880 301C1840 301 1760 301 1680 301C1600 301 1520 301 1440 301C1360 301 1280 301 1200 301C1120 301 1040 301 960 301C880 301 800 301 720 301C640 301 560 301 480 301C400 301 320 301 240 301C160 301 80 301 40 301L0 301Z" fill="#6b6b6b"></path><path d="M0 227L40 226.3C80 225.7 160 224.3 240 222.7C320 221 400 219 480 215.8C560 212.7 640 208.3 720 213C800 217.7 880 231.3 960 231C1040 230.7 1120 216.3 1200 210.8C1280 205.3 1360 208.7 1440 211.7C1520 214.7 1600 217.3 1680 219.8C1760 222.3 1840 224.7 1880 225.8L1920 227L1920 301L1880 301C1840 301 1760 301 1680 301C1600 301 1520 301 1440 301C1360 301 1280 301 1200 301C1120 301 1040 301 960 301C880 301 800 301 720 301C640 301 560 301 480 301C400 301 320 301 240 301C160 301 80 301 40 301L0 301Z" fill="#515151"></path><path d="M0 239L40 237.2C80 235.3 160 231.7 240 230.3C320 229 400 230 480 234C560 238 640 245 720 246.2C800 247.3 880 242.7 960 243.3C1040 244 1120 250 1200 251.7C1280 253.3 1360 250.7 1440 250C1520 249.3 1600 250.7 1680 248.5C1760 246.3 1840 240.7 1880 237.8L1920 235L1920 301L1880 301C1840 301 1760 301 1680 301C1600 301 1520 301 1440 301C1360 301 1280 301 1200 301C1120 301 1040 301 960 301C880 301 800 301 720 301C640 301 560 301 480 301C400 301 320 301 240 301C160 301 80 301 40 301L0 301Z" fill="#383838"></path><path d="M0 264L40 262.3C80 260.7 160 257.3 240 259.5C320 261.7 400 269.3 480 270.7C560 272 640 267 720 266.3C800 265.7 880 269.3 960 272.2C1040 275 1120 277 1200 274.3C1280 271.7 1360 264.3 1440 260.3C1520 256.3 1600 255.7 1680 257.5C1760 259.3 1840 263.7 1880 265.8L1920 268L1920 301L1880 301C1840 301 1760 301 1680 301C1600 301 1520 301 1440 301C1360 301 1280 301 1200 301C1120 301 1040 301 960 301C880 301 800 301 720 301C640 301 560 301 480 301C400 301 320 301 240 301C160 301 80 301 40 301L0 301Z" fill="#212121"></path></svg>