<svg id="visual" viewBox="0 0 960 540" width="960" height="540" xmlns="http://www.w3.org/2000/svg" xmlns:xlink="http://www.w3.org/1999/xlink" version="1.1"><rect x="0" y="0" width="960" height="540" fill="#fff"></rect><path d="M0 168L40 174C80 180 160 192 240 190.7C320 189.3 400 174.7 480 172.5C560 170.3 640 180.7 720 179.7C800 178.7 880 166.3 920 160.2L960 154L960 541L920 541C880 541 800 541 720 541C640 541 560 541 480 541C400 541 320 541 240 541C160 541 80 541 40 541L0 541Z" fill="#ffffff"></path><path d="M0 222L40 215.8C80 209.7 160 197.3 240 194.3C320 191.3 400 197.7 480 206.5C560 215.3 640 226.7 720 224.5C800 222.3 880 206.7 920 198.8L960 191L960 541L920 541C880 541 800 541 720 541C640 541 560 541 480 541C400 541 320 541 240 541C160 541 80 541 40 541L0 541Z" fill="#e6e6e6"></path><path d="M0 213L40 215.8C80 218.7 160 224.3 240 227C320 229.7 400 229.3 480 234.3C560 239.3 640 249.7 720 250.7C800 251.7 880 243.3 920 239.2L960 235L960 541L920 541C880 541 800 541 720 541C640 541 560 541 480 541C400 541 320 541 240 541C160 541 80 541 40 541L0 541Z" fill="#cdcdcd"></path><path d="M0 283L40 285.8C80 288.7 160 294.3 240 293.2C320 292 400 284 480 280.8C560 277.7 640 279.3 720 277.2C800 275 880 269 920 266L960 263L960 541L920 541C880 541 800 541 720 541C640 541 560 541 480 541C400 541 320 541 240 541C160 541 80 541 40 541L0 541Z" fill="#b5b5b5"></path><path d="M0 283L40 287.3C80 291.7 160 300.3 240 306.2C320 312 400 315 480 318C560 321 640 324 720 324.3C800 324.7 880 322.3 920 321.2L960 320L960 541L920 541C880 541 800 541 720 541C640 541 560 541 480 541C400 541 320 541 240 541C160 541 80 541 40 541L0 541Z" fill="#9e9e9e"></path><path d="M0 331L40 335.5C80 340 160 349 240 348.7C320 348.3 400 338.7 480 333.8C560 329 640 329 720 329C800 329 880 329 920 329L960 329L960 541L920 541C880 541 800 541 720 541C640 541 560 541 480 541C400 541 320 541 240 541C160 541 80 541 40 541L0 541Z" fill="#878787"></path><path d="M0 358L40 358.8C80 359.7 160 361.3 240 363C320 364.7 400 366.3 480 368.2C560 370 640 372 720 373.2C800 374.3 880 374.7 920 374.8L960 375L960 541L920 541C880 541 800 541 720 541C640 541 560 541 480 541C400 541 320 541 240 541C160 541 80 541 40 541L0 541Z" fill="#717171"></path><path d="M0 392L40 394.8C80 397.7 160 403.3 240 405.7C320 408 400 407 480 404.5C560 402 640 398 720 394.8C800 391.7 880 389.3 920 388.2L960 387L960 541L920 541C880 541 800 541 720 541C640 541 560 541 480 541C400 541 320 541 240 541C160 541 80 541 40 541L0 541Z" fill="#5c5c5c"></path><path d="M0 427L40 427.8C80 428.7 160 430.3 240 431.3C320 432.3 400 432.7 480 434.2C560 435.7 640 438.3 720 437C800 435.7 880 430.3 920 427.7L960 425L960 541L920 541C880 541 800 541 720 541C640 541 560 541 480 541C400 541 320 541 240 541C160 541 80 541 40 541L0 541Z" fill="#474747"></path><path d="M0 463L40 462C80 461 160 459 240 459.3C320 459.7 400 462.3 480 461.5C560 460.7 640 456.3 720 455.7C800 455 880 458 920 459.5L960 461L960 541L920 541C880 541 800 541 720 541C640 541 560 541 480 541C400 541 320 541 240 541C160 541 80 541 40 541L0 541Z" fill="#333333"></path><path d="M0 485L40 485.8C80 486.7 160 488.3 240 490C320 491.7 400 493.3 480 495.2C560 497 640 499 720 499.7C800 500.3 880 499.7 920 499.3L960 499L960 541L920 541C880 541 800 541 720 541C640 541 560 541 480 541C400 541 320 541 240 541C160 541 80 541 40 541L0 541Z" fill="#212121"></path></svg>